<?xml version="1.0" encoding="UTF-8"?>
<svg width="213px" height="189px" viewBox="0 0 213 189" version="1.1" xmlns="http://www.w3.org/2000/svg" xmlns:xlink="http://www.w3.org/1999/xlink">
    <title>default-monochrome-black</title>
    <g id="Page-1" stroke="none" stroke-width="1" fill="none" fill-rule="evenodd">
        <g id="default-monochrome-black" fill="#EF5757" fill-rule="nonzero">
            <g id="Shape">
                <path d="M211.93,121.755056 L211.716,117.462921 L207.436,117.677528 C206.366,117.677528 205.296,117.892135 204.012,117.892135 C201.016,118.106742 197.592,118.321348 194.168,118.750562 C195.238,112.741573 195.88,106.303371 195.88,99.6505618 L195.88,97.2898876 L197.164,97.0752809 C200.16,96.2168539 202.942,94.2853933 204.44,91.4955056 C206.152,88.705618 206.58,85.4865169 205.724,82.4820225 C204.868,79.4775281 202.942,76.6876404 200.16,75.1853933 C197.806,73.8977528 195.238,73.2539326 192.67,73.6831461 C190.53,65.3134831 187.32,57.3730337 183.04,50.2910112 L184.324,49.2179775 C186.678,47.0719101 188.176,44.2820225 188.39,41.0629213 C188.604,37.8438202 187.534,34.8393258 185.394,32.4786517 C183.254,30.1179775 180.472,28.6157303 177.262,28.4011236 C174.052,28.1865169 171.056,29.2595506 168.702,31.405618 L168.06,32.0494382 C162.71,27.3280899 156.932,23.2505618 150.512,20.0314607 L150.94,19.1730337 C152.224,16.1685393 152.224,12.9494382 150.94,9.94494382 C149.656,6.94044944 147.516,4.79438202 144.52,3.50674157 C138.528,0.931460674 131.466,3.93595506 128.898,9.94494382 L128.042,12.305618 C124.832,11.6617978 121.408,11.0179775 117.984,10.8033708 C117.128,5.00898876 112.206,0.502247191 106.214,0.502247191 C100.222,0.502247191 95.3,5.00898876 94.444,10.8033708 C90.806,11.2325843 87.168,11.8764045 83.53,12.5202247 L82.46,9.94494382 C81.176,6.94044944 79.036,4.79438202 76.04,3.50674157 C73.044,2.21910112 69.834,2.21910112 66.838,3.50674157 C63.842,4.79438202 61.702,6.94044944 60.418,9.94494382 C59.134,12.9494382 59.134,16.1685393 60.418,19.1730337 L61.06,20.4606742 C54.64,23.6797753 48.862,27.7573034 43.726,32.6932584 L42.656,31.6202247 C40.302,29.4741573 37.092,28.4011236 34.096,28.6157303 C30.886,28.8303371 28.104,30.3325843 25.964,32.6932584 C21.684,37.6292135 22.112,45.1404494 27.034,49.647191 L28.96,51.3640449 C24.894,58.4460674 21.684,65.9573034 19.758,74.3269663 C13.552,73.2539326 7.56,76.9022472 6.062,83.1258427 C4.35,89.5640449 8.202,96.0022472 14.622,97.7191011 L16.762,98.3629213 L16.762,100.508989 C16.762,107.161798 17.404,113.6 18.474,119.608989 C15.05,119.179775 11.412,118.965169 8.416,118.750562 C7.132,118.750562 6.062,118.535955 4.992,118.535955 L0.712,118.321348 L0.498,122.613483 C-1.642,156.306742 22.112,173.904494 22.968,174.762921 L26.606,177.338202 L29.174,173.475281 C29.174,173.475281 33.882,166.178652 37.734,160.598876 C53.356,178.411236 77.324,188.497753 106.642,188.497753 C135.96,188.497753 159.714,178.411236 175.55,160.813483 C179.188,166.393258 183.896,173.689888 183.896,173.689888 L186.464,177.552809 L190.102,174.977528 C190.316,173.046067 214.07,155.233708 211.93,121.755056 L211.93,121.755056 Z M106,8.22808989 C107.07,8.22808989 107.926,8.65730337 108.568,9.3011236 L103.432,9.3011236 C104.074,8.65730337 104.93,8.22808989 106,8.22808989 L106,8.22808989 Z M24.038,163.817978 C18.688,158.452809 8.416,145.791011 8.202,126.476404 C11.84,126.691011 16.334,126.905618 19.758,127.549438 C22.326,136.777528 26.178,145.147191 31.314,152.44382 C29.388,155.877528 26.392,160.598876 24.038,163.817978 L24.038,163.817978 Z M106,178.840449 C72.83,178.840449 47.578,164.676404 34.524,140.640449 C44.154,127.764045 58.064,118.965169 75.826,114.673034 L73.9,106.303371 C55.71,110.595506 41.158,119.179775 30.672,131.841573 C27.034,122.18427 25.108,111.239326 25.108,99.2213483 L29.174,100.294382 L31.314,91.9247191 L16.548,88.0617978 C14.836,87.6325843 13.766,85.7011236 14.194,83.9842697 C14.408,83.1258427 15.05,82.4820225 15.692,81.8382022 C16.548,81.4089888 17.404,81.194382 18.26,81.4089888 L33.026,85.2719101 L35.166,76.9022472 L28.104,74.9707865 C29.816,68.1033708 32.384,61.6651685 35.594,55.6561798 L38.59,58.2314607 L44.154,51.7932584 L32.598,41.7067416 C31.314,40.4191011 31.1,38.2730337 32.384,36.9853933 C33.026,36.341573 33.882,35.9123596 34.738,35.9123596 C35.594,35.9123596 36.45,36.1269663 37.092,36.7707865 L48.648,46.8573034 L54.212,40.4191011 L50.36,36.9853933 C54.64,33.1224719 59.348,29.9033708 64.484,27.1134831 L66.41,32.0494382 L74.328,28.8303371 L68.55,14.6662921 C68.122,13.8078652 68.122,12.9494382 68.55,12.0910112 C68.978,11.2325843 69.62,10.588764 70.262,10.1595506 C71.118,9.73033708 71.974,9.73033708 72.83,10.1595506 C73.686,10.588764 74.328,11.2325843 74.756,11.8764045 L80.534,26.0404494 L88.452,22.8213483 L86.954,19.1730337 C93.16,17.8853933 99.58,17.241573 106.214,17.241573 C112.634,17.241573 118.84,17.8853933 124.618,18.958427 L123.12,22.6067416 L131.038,25.8258427 L136.816,11.6617978 C137.458,9.94494382 139.598,9.08651685 141.096,9.94494382 C141.952,10.3741573 142.594,11.0179775 142.808,11.8764045 C143.236,12.7348315 143.236,13.5932584 142.808,14.4516854 L137.03,28.6157303 L144.948,31.8348315 L147.088,26.6842697 C152.224,29.4741573 157.146,32.6932584 161.426,36.5561798 L157.146,40.2044944 L162.71,46.6426966 L174.266,36.5561798 C174.908,35.9123596 175.764,35.6977528 176.62,35.6977528 C177.476,35.6977528 178.332,36.1269663 178.974,36.7707865 C179.616,37.4146067 179.83,38.2730337 179.83,39.1314607 C179.83,39.9898876 179.402,40.8483146 178.76,41.4921348 L167.204,51.5786517 L172.768,58.0168539 L176.406,54.7977528 C179.83,60.8067416 182.398,67.4595506 184.11,74.3269663 L176.192,76.4730337 L178.332,84.8426966 L193.098,80.9797753 C193.954,80.7651685 194.81,80.9797753 195.666,81.4089888 C196.522,81.8382022 196.95,82.6966292 197.164,83.5550562 C197.378,84.4134831 197.164,85.2719101 196.736,86.1303371 C196.308,86.988764 195.452,87.4179775 194.596,87.6325843 L179.83,91.4955056 L181.97,99.8651685 L186.892,98.5775281 L186.892,98.7921348 C186.892,110.810112 184.966,121.755056 181.328,131.41236 C170.628,118.965169 156.076,110.380899 137.886,105.874157 L135.96,114.24382 C153.722,118.535955 167.632,127.334831 177.262,140.211236 C164.422,164.676404 139.17,178.840449 106,178.840449 L106,178.840449 Z M187.748,163.817978 C185.608,160.598876 182.612,156.092135 180.472,152.658427 C185.608,145.361798 189.46,136.777528 192.028,127.549438 C195.452,126.905618 199.946,126.691011 203.37,126.476404 C203.37,146.005618 193.312,158.452809 187.748,163.817978 Z"></path>
                <path d="M126.676,109.168804 C126.676,98.7688037 116.198222,93.2629213 106.176,93.2629213 C93.5722963,93.2629213 85.676,99.3805684 85.676,109.168804 C85.676,111.921745 86.5871111,113.90998 87.9537778,115.439392 C86.8908148,120.792333 88.5611852,124.30998 90.2315556,126.298215 C94.6352593,131.651157 102.683407,132.262921 106.024148,132.262921 C109.364889,132.262921 117.413037,131.651157 121.816741,126.298215 C123.487111,124.30998 125.157481,120.945274 124.24637,115.745274 C125.916741,113.90998 126.676,111.768804 126.676,109.168804 L126.676,109.168804 Z M106.176,99.2629213 C113.197053,99.2629213 120.676,102.688453 120.676,108.794836 C120.676,110.284198 120.218105,111.028879 119.760211,111.326751 C117.776,113.262921 111.823368,113.262921 107.244421,113.262921 L106.176,113.262921 C96.2549474,113.262921 91.676,111.922496 91.676,108.794836 C91.676,100.454411 100.681263,99.2629213 106.176,99.2629213 L106.176,99.2629213 Z M106.099313,126.262921 C101.037963,126.262921 96.7434847,124.762921 94.9029939,122.262921 C94.1361227,121.096255 93.676,119.762921 93.676,118.262921 C97.9704785,119.596255 103.031828,119.596255 106.099313,119.596255 L108.246552,119.596255 C111.77416,119.596255 115.455141,119.429588 118.676,118.596255 C118.522626,120.096255 118.215877,121.262921 117.449006,122.262921 C115.301767,124.762921 111.160663,126.262921 106.099313,126.262921 L106.099313,126.262921 Z M73.422,50.2269663 C63.364,50.2269663 55.018,58.5966292 55.018,68.6831461 C55.018,78.7696629 63.364,87.1393258 73.422,87.1393258 C83.48,87.1393258 91.826,78.7696629 91.826,68.6831461 C91.826,58.5966292 83.48,50.2269663 73.422,50.2269663 Z M71.282,63.747191 C71.282,65.2494382 69.998,66.5370787 68.5,66.5370787 C67.002,66.5370787 65.718,65.2494382 65.718,63.747191 C65.718,62.2449438 67.002,60.9573034 68.5,60.9573034 C69.998,60.9573034 71.282,62.2449438 71.282,63.747191 Z M73.422,78.5550562 C70.212,78.5550562 67.43,77.052809 65.718,74.6921348 C66.574,74.9067416 67.644,75.1213483 68.5,75.1213483 C74.706,75.1213483 79.842,69.9707865 79.842,63.747191 C79.842,62.6741573 79.628,61.8157303 79.414,60.9573034 C81.768,62.6741573 83.266,65.4640449 83.266,68.6831461 C83.266,74.0483146 78.772,78.5550562 73.422,78.5550562 L73.422,78.5550562 Z M139.422,50.2269663 C129.364,50.2269663 121.018,58.5966292 121.018,68.6831461 C121.018,78.7696629 129.364,87.1393258 139.422,87.1393258 C149.48,87.1393258 157.826,78.7696629 157.826,68.6831461 C157.826,58.5966292 149.48,50.2269663 139.422,50.2269663 Z M137.282,63.747191 C137.282,65.2494382 135.998,66.5370787 134.5,66.5370787 C133.002,66.5370787 131.718,65.2494382 131.718,63.747191 C131.718,62.2449438 133.002,60.9573034 134.5,60.9573034 C135.998,60.9573034 137.282,62.2449438 137.282,63.747191 Z M139.422,78.5550562 C136.212,78.5550562 133.43,77.052809 131.718,74.6921348 C132.574,74.9067416 133.644,75.1213483 134.5,75.1213483 C140.706,75.1213483 145.842,69.9707865 145.842,63.747191 C145.842,62.6741573 145.628,61.8157303 145.414,60.9573034 C147.768,62.6741573 149.266,65.4640449 149.266,68.6831461 C149.266,74.0483146 144.772,78.5550562 139.422,78.5550562 L139.422,78.5550562 Z M106,37.4146067 C107.926,37.4146067 109.424,38.9168539 109.424,40.8483146 L117.984,40.8483146 C117.984,34.1955056 112.634,28.8303371 106,28.8303371 C99.366,28.8303371 94.016,34.1955056 94.016,40.8483146 L102.576,40.8483146 C102.576,38.9168539 104.074,37.4146067 106,37.4146067 Z M106,155.662921 C104.074,155.662921 102.576,154.160674 102.576,152.229213 L94.016,152.229213 C94.016,158.882022 99.366,164.247191 106,164.247191 C112.634,164.247191 117.984,158.882022 117.984,152.229213 L109.424,152.229213 C109.21,154.160674 107.712,155.662921 106,155.662921 Z M144.092,138.065169 C144.734,138.708989 145.162,139.567416 145.162,140.425843 C145.162,141.28427 144.734,142.142697 144.092,142.786517 C142.808,144.074157 140.668,144.074157 139.384,142.786517 L133.392,148.795506 C135.746,151.15618 138.742,152.229213 141.738,152.229213 C144.734,152.229213 147.944,151.15618 150.084,148.795506 C152.438,146.434831 153.508,143.644944 153.508,140.425843 C153.508,137.206742 152.224,134.202247 150.084,132.05618 L144.092,138.065169 L144.092,138.065169 Z M68.764,142.786517 C67.48,141.498876 67.48,139.352809 68.764,138.065169 L62.772,132.05618 C58.064,136.777528 58.064,144.288764 62.772,149.010112 C65.126,151.370787 68.122,152.44382 71.118,152.44382 C74.114,152.44382 77.324,151.370787 79.464,149.010112 L73.472,143.001124 C72.188,144.288764 70.048,144.288764 68.764,142.786517 L68.764,142.786517 Z"></path>
            </g>
        </g>
    </g>
</svg>